<!-- SRPG Class Icons - SVG 职业图标库 -->
<svg xmlns="http://www.w3.org/2000/svg" style="display: none;">
  <!-- 战士/侠客 Icon -->
  <symbol id="icon-warrior" viewBox="0 0 64 64">
    <defs>
      <linearGradient id="grad-warrior" x1="0%" y1="0%" x2="100%" y2="100%">
        <stop offset="0%" style="stop-color:#ef4444"/>
        <stop offset="100%" style="stop-color:#dc2626"/>
      </linearGradient>
    </defs>
    <circle cx="32" cy="32" r="30" fill="url(#grad-warrior)" opacity="0.2"/>
    <path d="M32 8 L36 24 L52 24 L40 34 L44 50 L32 40 L20 50 L24 34 L12 24 L28 24 Z" fill="url(#grad-warrior)"/>
    <path d="M32 18 L34 26 L42 26 L36 32 L38 40 L32 36 L26 40 L28 32 L22 26 L30 26 Z" fill="#fff" opacity="0.3"/>
  </symbol>

  <!-- 坦克/铁卫 Icon -->
  <symbol id="icon-tank" viewBox="0 0 64 64">
    <defs>
      <linearGradient id="grad-tank" x1="0%" y1="0%" x2="100%" y2="100%">
        <stop offset="0%" style="stop-color:#22c55e"/>
        <stop offset="100%" style="stop-color:#16a34a"/>
      </linearGradient>
    </defs>
    <circle cx="32" cy="32" r="30" fill="url(#grad-tank)" opacity="0.2"/>
    <path d="M32 6 C20 6 12 14 12 26 L12 46 C12 54 20 58 32 58 C44 58 52 54 52 46 L52 26 C52 14 44 6 32 6 Z" fill="url(#grad-tank)"/>
    <path d="M32 14 C24 14 20 18 20 26 L20 42 C20 48 24 50 32 50 C40 50 44 48 44 42 L44 26 C44 18 40 14 32 14 Z" fill="#fff" opacity="0.2"/>
    <rect x="28" y="30" width="8" height="16" rx="2" fill="#fff" opacity="0.4"/>
  </symbol>

  <!-- 法师/咒师 Icon -->
  <symbol id="icon-mage" viewBox="0 0 64 64">
    <defs>
      <linearGradient id="grad-mage" x1="0%" y1="0%" x2="100%" y2="100%">
        <stop offset="0%" style="stop-color:#a855f7"/>
        <stop offset="100%" style="stop-color:#7c3aed"/>
      </linearGradient>
    </defs>
    <circle cx="32" cy="32" r="30" fill="url(#grad-mage)" opacity="0.2"/>
    <path d="M32 4 L36 24 L56 24 L40 36 L46 56 L32 44 L18 56 L24 36 L8 24 L28 24 Z" fill="url(#grad-mage)"/>
    <circle cx="32" cy="32" r="8" fill="#fff" opacity="0.3"/>
    <circle cx="32" cy="32" r="4" fill="#fff" opacity="0.6"/>
  </symbol>

  <!-- 弓手/羽士 Icon -->
  <symbol id="icon-archer" viewBox="0 0 64 64">
    <defs>
      <linearGradient id="grad-archer" x1="0%" y1="0%" x2="100%" y2="100%">
        <stop offset="0%" style="stop-color:#f59e0b"/>
        <stop offset="100%" style="stop-color:#d97706"/>
      </linearGradient>
    </defs>
    <circle cx="32" cy="32" r="30" fill="url(#grad-archer)" opacity="0.2"/>
    <path d="M8 32 Q32 8 56 32 Q32 56 8 32" fill="none" stroke="url(#grad-archer)" stroke-width="4"/>
    <line x1="8" y1="32" x2="56" y2="32" stroke="url(#grad-archer)" stroke-width="3"/>
    <line x1="32" y1="8" x2="32" y2="56" stroke="url(#grad-archer)" stroke-width="2" opacity="0.5"/>
    <circle cx="32" cy="32" r="5" fill="url(#grad-archer)"/>
  </symbol>

  <!-- 治疗/祝由 Icon -->
  <symbol id="icon-healer" viewBox="0 0 64 64">
    <defs>
      <linearGradient id="grad-healer" x1="0%" y1="0%" x2="100%" y2="100%">
        <stop offset="0%" style="stop-color:#06b6d4"/>
        <stop offset="100%" style="stop-color:#0891b2"/>
      </linearGradient>
    </defs>
    <circle cx="32" cy="32" r="30" fill="url(#grad-healer)" opacity="0.2"/>
    <path d="M32 10 L38 26 L54 26 L42 36 L46 52 L32 42 L18 52 L22 36 L10 26 L26 26 Z" fill="url(#grad-healer)"/>
    <path d="M32 20 L35 29 L44 29 L37 35 L39 44 L32 38 L25 44 L27 35 L20 29 L29 29 Z" fill="#fff" opacity="0.4"/>
  </symbol>

  <!-- 刺客/御风 Icon -->
  <symbol id="icon-assassin" viewBox="0 0 64 64">
    <defs>
      <linearGradient id="grad-assassin" x1="0%" y1="0%" x2="100%" y2="100%">
        <stop offset="0%" style="stop-color:#ec4899"/>
        <stop offset="100%" style="stop-color:#db2777"/>
      </linearGradient>
    </defs>
    <circle cx="32" cy="32" r="30" fill="url(#grad-assassin)" opacity="0.2"/>
    <path d="M32 4 L38 22 L56 22 L42 32 L48 50 L32 40 L16 50 L22 32 L8 22 L26 22 Z" fill="url(#grad-assassin)"/>
    <path d="M32 52 L36 44 L44 44 L38 38 L40 30 L32 36 L24 30 L26 38 L20 44 L28 44 Z" fill="#fff" opacity="0.3"/>
  </symbol>

  <!-- 骑兵 Icon -->
  <symbol id="icon-cavalry" viewBox="0 0 64 64">
    <defs>
      <linearGradient id="grad-cavalry" x1="0%" y1="0%" x2="100%" y2="100%">
        <stop offset="0%" style="stop-color:#f97316"/>
        <stop offset="100%" style="stop-color:#ea580c"/>
      </linearGradient>
    </defs>
    <circle cx="32" cy="32" r="30" fill="url(#grad-cavalry)" opacity="0.2"/>
    <ellipse cx="32" cy="40" rx="18" ry="12" fill="url(#grad-cavalry)"/>
    <path d="M20 28 L28 16 L36 28 L32 36 Z" fill="url(#grad-cavalry)"/>
    <circle cx="32" cy="20" r="6" fill="#fff" opacity="0.4"/>
    <path d="M26 40 L22 52 M38 40 L42 52" stroke="url(#grad-cavalry)" stroke-width="3" stroke-linecap="round"/>
  </symbol>

  <!-- 飞兵 Icon -->
  <symbol id="icon-flyer" viewBox="0 0 64 64">
    <defs>
      <linearGradient id="grad-flyer" x1="0%" y1="0%" x2="100%" y2="100%">
        <stop offset="0%" style="stop-color:#8b5cf6"/>
        <stop offset="100%" style="stop-color:#7c3aed"/>
      </linearGradient>
    </defs>
    <circle cx="32" cy="32" r="30" fill="url(#grad-flyer)" opacity="0.2"/>
    <path d="M8 36 Q20 20 32 28 Q44 20 56 36 Q44 32 32 36 Q20 32 8 36" fill="url(#grad-flyer)"/>
    <path d="M32 28 L32 48" stroke="url(#grad-flyer)" stroke-width="3" stroke-linecap="round"/>
    <circle cx="32" cy="52" r="4" fill="url(#grad-flyer)"/>
  </symbol>

  <!-- 步兵 Icon -->
  <symbol id="icon-infantry" viewBox="0 0 64 64">
    <defs>
      <linearGradient id="grad-infantry" x1="0%" y1="0%" x2="100%" y2="100%">
        <stop offset="0%" style="stop-color:#64748b"/>
        <stop offset="100%" style="stop-color:#475569"/>
      </linearGradient>
    </defs>
    <circle cx="32" cy="32" r="30" fill="url(#grad-infantry)" opacity="0.2"/>
    <rect x="20" y="16" width="24" height="36" rx="4" fill="url(#grad-infantry)"/>
    <rect x="24" y="22" width="16" height="8" rx="2" fill="#fff" opacity="0.3"/>
    <rect x="24" y="34" width="16" height="4" rx="1" fill="#fff" opacity="0.2"/>
    <rect x="24" y="42" width="16" height="4" rx="1" fill="#fff" opacity="0.2"/>
  </symbol>

  <!-- 枪兵 Icon -->
  <symbol id="icon-spearman" viewBox="0 0 64 64">
    <defs>
      <linearGradient id="grad-spearman" x1="0%" y1="0%" x2="100%" y2="100%">
        <stop offset="0%" style="stop-color:#14b8a6"/>
        <stop offset="100%" style="stop-color:#0d9488"/>
      </linearGradient>
    </defs>
    <circle cx="32" cy="32" r="30" fill="url(#grad-spearman)" opacity="0.2"/>
    <path d="M32 8 L36 28 L56 32 L36 36 L32 56 L28 36 L8 32 L28 28 Z" fill="url(#grad-spearman)"/>
    <circle cx="32" cy="32" r="6" fill="#fff" opacity="0.4"/>
  </symbol>

  <!-- 光属性 Icon -->
  <symbol id="icon-light" viewBox="0 0 64 64">
    <defs>
      <linearGradient id="grad-light" x1="0%" y1="0%" x2="100%" y2="100%">
        <stop offset="0%" style="stop-color:#fbbf24"/>
        <stop offset="100%" style="stop-color:#f59e0b"/>
      </linearGradient>
    </defs>
    <circle cx="32" cy="32" r="30" fill="url(#grad-light)" opacity="0.2"/>
    <circle cx="32" cy="32" r="12" fill="url(#grad-light)"/>
    <g stroke="url(#grad-light)" stroke-width="3" stroke-linecap="round">
      <line x1="32" y1="4" x2="32" y2="14"/>
      <line x1="32" y1="50" x2="32" y2="60"/>
      <line x1="4" y1="32" x2="14" y2="32"/>
      <line x1="50" y1="32" x2="60" y2="32"/>
      <line x1="12" y1="12" x2="19" y2="19"/>
      <line x1="45" y1="45" x2="52" y2="52"/>
      <line x1="12" y1="52" x2="19" y2="45"/>
      <line x1="45" y1="19" x2="52" y2="12"/>
    </g>
  </symbol>

  <!-- 暗属性 Icon -->
  <symbol id="icon-dark" viewBox="0 0 64 64">
    <defs>
      <linearGradient id="grad-dark" x1="0%" y1="0%" x2="100%" y2="100%">
        <stop offset="0%" style="stop-color:#7c3aed"/>
        <stop offset="100%" style="stop-color:#5b21b6"/>
      </linearGradient>
    </defs>
    <circle cx="32" cy="32" r="30" fill="url(#grad-dark)" opacity="0.2"/>
    <path d="M32 8 C20 8 12 20 12 32 C12 44 20 56 32 56 C26 48 24 40 24 32 C24 24 26 16 32 8" fill="url(#grad-dark)"/>
    <path d="M32 8 C38 16 40 24 40 32 C40 40 38 48 32 56 C44 56 52 44 52 32 C52 20 44 8 32 8" fill="url(#grad-dark)" opacity="0.5"/>
  </symbol>

  <!-- 火属性 Icon -->
  <symbol id="icon-fire" viewBox="0 0 64 64">
    <defs>
      <linearGradient id="grad-fire" x1="0%" y1="100%" x2="100%" y2="0%">
        <stop offset="0%" style="stop-color:#ef4444"/>
        <stop offset="50%" style="stop-color:#f97316"/>
        <stop offset="100%" style="stop-color:#fbbf24"/>
      </linearGradient>
    </defs>
    <circle cx="32" cy="32" r="30" fill="url(#grad-fire)" opacity="0.2"/>
    <path d="M32 52 C42 48 48 38 46 28 C45 22 42 18 38 14 C38 20 36 24 32 26 C28 24 26 20 26 14 C22 18 19 22 18 28 C16 38 22 48 32 52" fill="url(#grad-fire)"/>
  </symbol>

  <!-- 冰属性 Icon -->
  <symbol id="icon-ice" viewBox="0 0 64 64">
    <defs>
      <linearGradient id="grad-ice" x1="0%" y1="0%" x2="100%" y2="100%">
        <stop offset="0%" style="stop-color:#06b6d4"/>
        <stop offset="100%" style="stop-color:#3b82f6"/>
      </linearGradient>
    </defs>
    <circle cx="32" cy="32" r="30" fill="url(#grad-ice)" opacity="0.2"/>
    <path d="M32 8 L36 24 L52 24 L40 34 L44 50 L32 40 L20 50 L24 34 L12 24 L28 24 Z" fill="url(#grad-ice)"/>
    <circle cx="32" cy="32" r="6" fill="#fff" opacity="0.5"/>
  </symbol>

  <!-- 雷属性 Icon -->
  <symbol id="icon-thunder" viewBox="0 0 64 64">
    <defs>
      <linearGradient id="grad-thunder" x1="0%" y1="0%" x2="100%" y2="100%">
        <stop offset="0%" style="stop-color:#a855f7"/>
        <stop offset="100%" style="stop-color:#fbbf24"/>
      </linearGradient>
    </defs>
    <circle cx="32" cy="32" r="30" fill="url(#grad-thunder)" opacity="0.2"/>
    <path d="M36 8 L20 30 L30 30 L26 56 L46 28 L36 28 Z" fill="url(#grad-thunder)"/>
  </symbol>
</svg>
